{"title":"Star.Wars.The.Force.Awakens.2015.CAM.XviD-VAiN","uid":13057857,"size":2790102732,"categoryP":"video","categoryS":"movies","magnet":"?xt=urn:btih:05cce1843c6911e8b815a2af14cdf5ee9033966c&amp;dn=Star.Wars.The.Force.Awakens.2015.CAM.XviD-VAiN&amp;tr=udp%3A%2F%2Ftracker.leechers-paradise.org%3A6969&amp;tr=udp%3A%2F%2Fzer0day.ch%3A1337&amp;tr=udp%3A%2F%2Fopen.demonii.com%3A1337&amp;tr=udp%3A%2F%2Ftracker.coppersurfer.tk%3A6969&amp;tr=udp%3A%2F%2Fexodus.desync.com%3A6969","seeders":6,"leechers":4,"uploader":"xxxlavalxxx","files":4,"time":1450676279,"description":"http://extraimago.com/image/5c2\r\n \nhttp://www.imdb.com/title/tt2488496/\r\n\r\n\r\nThree decades after the defeat of the Galactic Empire, a new threat arises. The First Order attempts to rule the galaxy and only a rag-tag group of heroes can stop them, along with the help of the Resistance.\r\n\r\nDirector: J.J. Abrams\r\nWriters: Lawrence Kasdan, J.J. Abrams\r\nStars: Daisy Ridley, John Boyega, Oscar Isaac \r\nGenres: Action | Adventure | Fantasy | Sci-Fi\r\nCountry: USA\r\nLanguage: English\r\n\r\n\r\nStar.Wars.The.Force.Awakens.2015.CAM.XviD-VAiN\r\n\r\niMDB........: http://www.imdb.com/title/tt2488496/\r\n\r\nPLOT........: Three decades after the defeat of the Galactic Empire, a new threat arises. The First Order attempts to rule the galaxy and only a rag-tag group of heroes can stop them, along with the help of the Resistance.\r\n\r\n\r\nT E C H N i C A L . i N F O . . .\r\n\r\nBasic Information\r\nFormat                      : AVI\r\nFormat/Info                 : Audio Video Interleave\r\nFormat profile              : OpenDML\r\nFile size                   : 2.57 GiB\r\nDuration                    : 2h 7mn\r\nOverall bit rate            : 2 901 Kbps\r\nWriting application         : Lavf56.40.101\r\nWriting library             : VirtualDub build 35491/release\r\n\r\nVideo\r\nID                          : 0\r\nFormat                      : MPEG-4 Visual\r\nFormat profile              : Advanced   \r\nFormat settings, BVOP       : 3\r\nFormat settings, QPel       : No\r\nFormat settings, GMC        : No warppoints\r\nFormat settings, Matrix     : Default (H.263)\r\nCodec ID                    : XVID\r\nCodec ID/Hint               : XviD\r\nDuration                    : 2h 7mn\r\nBit rate                    : 1 476 Kbps\r\nWidth                       : 720 pixels\r\nHeight                      : 304 pixels\r\nDisplay aspect ratio        : 2.35:1\r\nFrame rate                  : 29.970 (30000/1001) fps\r\nColor space                 : YUV\r\nChroma subsampling          : 4:2:0\r\nBit depth                   : 8 bits\r\nScan type                   : Progressive\r\nCompression mode            : Lossy\r\nBits/(Pixel*Frame)          : 0.225\r\nStream size                 : 1.31 GiB (51%)\r\nWriting library             : XviD 67\r\n\r\nAudio\r\nID                          : 1\r\nFormat                      : PCM\r\nFormat settings, Endianness : Little\r\nFormat settings, Sign       : Signed\r\nCodec ID                    : 1\r\nDuration                    : 2h 7mn\r\nBit rate mode               : Constant\r\nBit rate                    : 1 411.2 Kbps\r\nChannel(s)                  : 2 channels\r\nSampling rate               : 44.1 KHz\r\nBit depth                   : 16 bits\r\nStream size                 : 1.25 GiB (49%)\r\nAlignment                   : Aligned on interleaves\r\nInterleave, duration        : 33 ms (1.00 video frame)\r\nInterleave, preload duratio : 500 ms\r\n\r\n\r\nE N C O D E R S . N O T E S . . .       \r\n\r\nSOURCE......: ViDEO...2015.D.CAMRip.2100MB.ELEKTRI4KA\r\n............: AUDiO...UK Cinemas\r\nSAMPLE......: Yippers \r\nADDED NOTE..: used the force to encdoe and sync \r\n\r\n\r\nGREETZ:\r\n\r\nHive-CM8 | Rx | REFiLL | JEDI | TW34K | 26k | Unevano | EsX | TOFFEE\r\nGH0ST | ViSiON | R3V | Adam007 | STARLETS | GUSH | A.C.A.B. | jamie111 | TED |\r\n \nhttp://extraimago.com/image/5cN \nhttp://extraimago.com/image/5cT \nhttp://extraimago.com/image/5cj \nhttp://extraimago.com/image/5cn \nhttp://extraimago.com/image/5cs \nhttp://extraimago.com/image/5c7 \nhttp://extraimago.com/image/5cc \nhttp://extraimago.com/image/5c1","torrent":{"xt":"urn:btih:05cce1843c6911e8b815a2af14cdf5ee9033966c","amp;dn":"Star.Wars.The.Force.Awakens.2015.CAM.XviD-VAiN","amp;tr":["udp%3A%2F%2Ftracker.leechers-paradise.org%3A6969","udp%3A%2F%2Fzer0day.ch%3A1337","udp%3A%2F%2Fopen.demonii.com%3A1337","udp%3A%2F%2Ftracker.coppersurfer.tk%3A6969","udp%3A%2F%2Fexodus.desync.com%3A6969"],"infoHash":"05cce1843c6911e8b815a2af14cdf5ee9033966c","infoHashBuffer":{"type":"Buffer","data":[5,204,225,132,60,105,17,232,184,21,162,175,20,205,245,238,144,51,150,108]},"announce":[],"urlList":[]}}